<mxfile host="app.diagrams.net" modified="2023-04-07T12:44:12.030Z" agent="5.0 (Macintosh; Intel Mac OS X 10_15_7) AppleWebKit/537.36 (KHTML, like Gecko) Chrome/111.0.0.0 Safari/537.36" etag="C6w9YJGOjLOLjtmYQJO2" version="20.6.0" type="github">
  <diagram id="C5RBs43oDa-KdzZeNtuy" name="Page-1">
    <mxGraphModel dx="1051" dy="600" grid="1" gridSize="10" guides="1" tooltips="1" connect="1" arrows="1" fold="1" page="1" pageScale="1" pageWidth="827" pageHeight="1169" math="0" shadow="0">
      <root>
        <mxCell id="WIyWlLk6GJQsqaUBKTNV-0" />
        <mxCell id="WIyWlLk6GJQsqaUBKTNV-1" parent="WIyWlLk6GJQsqaUBKTNV-0" />
        <mxCell id="Af25gzBN8nT7H2rfPNfR-5" value="" style="edgeStyle=orthogonalEdgeStyle;rounded=0;orthogonalLoop=1;jettySize=auto;html=1;fontSize=16;" edge="1" parent="WIyWlLk6GJQsqaUBKTNV-1" source="Af25gzBN8nT7H2rfPNfR-3" target="Af25gzBN8nT7H2rfPNfR-4">
          <mxGeometry relative="1" as="geometry" />
        </mxCell>
        <mxCell id="Af25gzBN8nT7H2rfPNfR-3" value="&lt;b&gt;Start&lt;/b&gt;" style="strokeWidth=2;html=1;shape=mxgraph.flowchart.start_1;whiteSpace=wrap;fontSize=16;" vertex="1" parent="WIyWlLk6GJQsqaUBKTNV-1">
          <mxGeometry x="340" y="30" width="100" height="60" as="geometry" />
        </mxCell>
        <mxCell id="Af25gzBN8nT7H2rfPNfR-9" value="" style="edgeStyle=orthogonalEdgeStyle;rounded=0;orthogonalLoop=1;jettySize=auto;html=1;fontSize=16;" edge="1" parent="WIyWlLk6GJQsqaUBKTNV-1" source="Af25gzBN8nT7H2rfPNfR-4" target="Af25gzBN8nT7H2rfPNfR-8">
          <mxGeometry relative="1" as="geometry" />
        </mxCell>
        <mxCell id="Af25gzBN8nT7H2rfPNfR-4" value="Dedup check+Ipac free sim Api" style="whiteSpace=wrap;html=1;fontSize=16;strokeWidth=2;" vertex="1" parent="WIyWlLk6GJQsqaUBKTNV-1">
          <mxGeometry x="330" y="180" width="120" height="60" as="geometry" />
        </mxCell>
        <mxCell id="Af25gzBN8nT7H2rfPNfR-13" value="" style="edgeStyle=orthogonalEdgeStyle;rounded=0;orthogonalLoop=1;jettySize=auto;html=1;fontSize=16;" edge="1" parent="WIyWlLk6GJQsqaUBKTNV-1" source="Af25gzBN8nT7H2rfPNfR-8" target="Af25gzBN8nT7H2rfPNfR-12">
          <mxGeometry relative="1" as="geometry" />
        </mxCell>
        <mxCell id="Af25gzBN8nT7H2rfPNfR-8" value="&lt;b&gt;Submit&lt;br&gt;from App&lt;br&gt;&lt;/b&gt;" style="whiteSpace=wrap;html=1;fontSize=16;strokeWidth=2;" vertex="1" parent="WIyWlLk6GJQsqaUBKTNV-1">
          <mxGeometry x="330" y="320" width="120" height="60" as="geometry" />
        </mxCell>
        <mxCell id="Af25gzBN8nT7H2rfPNfR-15" value="" style="edgeStyle=orthogonalEdgeStyle;rounded=0;orthogonalLoop=1;jettySize=auto;html=1;fontSize=16;" edge="1" parent="WIyWlLk6GJQsqaUBKTNV-1" source="Af25gzBN8nT7H2rfPNfR-12" target="Af25gzBN8nT7H2rfPNfR-14">
          <mxGeometry relative="1" as="geometry" />
        </mxCell>
        <mxCell id="Af25gzBN8nT7H2rfPNfR-17" value="" style="edgeStyle=orthogonalEdgeStyle;rounded=0;orthogonalLoop=1;jettySize=auto;html=1;fontSize=16;" edge="1" parent="WIyWlLk6GJQsqaUBKTNV-1" source="Af25gzBN8nT7H2rfPNfR-12" target="Af25gzBN8nT7H2rfPNfR-16">
          <mxGeometry relative="1" as="geometry" />
        </mxCell>
        <mxCell id="Af25gzBN8nT7H2rfPNfR-12" value="success" style="rhombus;whiteSpace=wrap;html=1;fontSize=16;strokeWidth=2;" vertex="1" parent="WIyWlLk6GJQsqaUBKTNV-1">
          <mxGeometry x="350" y="450" width="80" height="80" as="geometry" />
        </mxCell>
        <mxCell id="Af25gzBN8nT7H2rfPNfR-21" value="" style="edgeStyle=orthogonalEdgeStyle;rounded=0;orthogonalLoop=1;jettySize=auto;html=1;fontSize=16;" edge="1" parent="WIyWlLk6GJQsqaUBKTNV-1" source="Af25gzBN8nT7H2rfPNfR-14" target="Af25gzBN8nT7H2rfPNfR-20">
          <mxGeometry relative="1" as="geometry" />
        </mxCell>
        <mxCell id="Af25gzBN8nT7H2rfPNfR-14" value="yes" style="whiteSpace=wrap;html=1;fontSize=16;strokeWidth=2;" vertex="1" parent="WIyWlLk6GJQsqaUBKTNV-1">
          <mxGeometry x="170" y="460" width="120" height="60" as="geometry" />
        </mxCell>
        <mxCell id="Af25gzBN8nT7H2rfPNfR-19" value="" style="edgeStyle=orthogonalEdgeStyle;rounded=0;orthogonalLoop=1;jettySize=auto;html=1;fontSize=16;" edge="1" parent="WIyWlLk6GJQsqaUBKTNV-1" source="Af25gzBN8nT7H2rfPNfR-16" target="Af25gzBN8nT7H2rfPNfR-18">
          <mxGeometry relative="1" as="geometry" />
        </mxCell>
        <mxCell id="Af25gzBN8nT7H2rfPNfR-16" value="NO" style="whiteSpace=wrap;html=1;fontSize=16;strokeWidth=2;" vertex="1" parent="WIyWlLk6GJQsqaUBKTNV-1">
          <mxGeometry x="490" y="460" width="120" height="60" as="geometry" />
        </mxCell>
        <mxCell id="Af25gzBN8nT7H2rfPNfR-18" value="END" style="strokeWidth=2;html=1;shape=mxgraph.flowchart.terminator;whiteSpace=wrap;fontSize=16;" vertex="1" parent="WIyWlLk6GJQsqaUBKTNV-1">
          <mxGeometry x="690" y="460" width="100" height="60" as="geometry" />
        </mxCell>
        <mxCell id="Af25gzBN8nT7H2rfPNfR-24" value="" style="edgeStyle=orthogonalEdgeStyle;rounded=0;orthogonalLoop=1;jettySize=auto;html=1;fontSize=16;" edge="1" parent="WIyWlLk6GJQsqaUBKTNV-1" source="Af25gzBN8nT7H2rfPNfR-20" target="Af25gzBN8nT7H2rfPNfR-23">
          <mxGeometry relative="1" as="geometry" />
        </mxCell>
        <mxCell id="Af25gzBN8nT7H2rfPNfR-20" value="LCD FLOW" style="rounded=1;whiteSpace=wrap;html=1;fontSize=16;strokeWidth=2;" vertex="1" parent="WIyWlLk6GJQsqaUBKTNV-1">
          <mxGeometry x="170" y="600" width="120" height="60" as="geometry" />
        </mxCell>
        <mxCell id="Af25gzBN8nT7H2rfPNfR-26" value="" style="edgeStyle=orthogonalEdgeStyle;rounded=0;orthogonalLoop=1;jettySize=auto;html=1;fontSize=16;" edge="1" parent="WIyWlLk6GJQsqaUBKTNV-1" source="Af25gzBN8nT7H2rfPNfR-23">
          <mxGeometry relative="1" as="geometry">
            <mxPoint x="369.9999999999998" y="770" as="targetPoint" />
          </mxGeometry>
        </mxCell>
        <mxCell id="Af25gzBN8nT7H2rfPNfR-23" value="Succcess To Ui&lt;br&gt;" style="ellipse;whiteSpace=wrap;html=1;fontSize=16;rounded=1;strokeWidth=2;" vertex="1" parent="WIyWlLk6GJQsqaUBKTNV-1">
          <mxGeometry x="170" y="740" width="120" height="60" as="geometry" />
        </mxCell>
        <mxCell id="Af25gzBN8nT7H2rfPNfR-28" value="" style="edgeStyle=orthogonalEdgeStyle;rounded=0;orthogonalLoop=1;jettySize=auto;html=1;fontSize=16;" edge="1" parent="WIyWlLk6GJQsqaUBKTNV-1" target="Af25gzBN8nT7H2rfPNfR-27">
          <mxGeometry relative="1" as="geometry">
            <mxPoint x="429.9999999999998" y="800" as="sourcePoint" />
          </mxGeometry>
        </mxCell>
        <mxCell id="Af25gzBN8nT7H2rfPNfR-42" value="" style="edgeStyle=orthogonalEdgeStyle;rounded=0;orthogonalLoop=1;jettySize=auto;html=1;fontSize=16;" edge="1" parent="WIyWlLk6GJQsqaUBKTNV-1" source="Af25gzBN8nT7H2rfPNfR-27" target="Af25gzBN8nT7H2rfPNfR-38">
          <mxGeometry relative="1" as="geometry" />
        </mxCell>
        <mxCell id="Af25gzBN8nT7H2rfPNfR-47" value="" style="edgeStyle=orthogonalEdgeStyle;rounded=0;orthogonalLoop=1;jettySize=auto;html=1;fontSize=16;" edge="1" parent="WIyWlLk6GJQsqaUBKTNV-1" source="Af25gzBN8nT7H2rfPNfR-27" target="Af25gzBN8nT7H2rfPNfR-46">
          <mxGeometry relative="1" as="geometry" />
        </mxCell>
        <mxCell id="Af25gzBN8nT7H2rfPNfR-27" value="verification &lt;br&gt;by Agent" style="rhombus;whiteSpace=wrap;html=1;fontSize=16;rounded=1;strokeWidth=2;" vertex="1" parent="WIyWlLk6GJQsqaUBKTNV-1">
          <mxGeometry x="360" y="700" width="150" height="125" as="geometry" />
        </mxCell>
        <mxCell id="Af25gzBN8nT7H2rfPNfR-44" value="" style="edgeStyle=orthogonalEdgeStyle;rounded=0;orthogonalLoop=1;jettySize=auto;html=1;fontSize=16;" edge="1" parent="WIyWlLk6GJQsqaUBKTNV-1" source="Af25gzBN8nT7H2rfPNfR-34" target="Af25gzBN8nT7H2rfPNfR-43">
          <mxGeometry relative="1" as="geometry" />
        </mxCell>
        <mxCell id="Af25gzBN8nT7H2rfPNfR-48" value="" style="edgeStyle=orthogonalEdgeStyle;rounded=0;orthogonalLoop=1;jettySize=auto;html=1;fontSize=16;" edge="1" parent="WIyWlLk6GJQsqaUBKTNV-1" source="Af25gzBN8nT7H2rfPNfR-34" target="Af25gzBN8nT7H2rfPNfR-46">
          <mxGeometry relative="1" as="geometry" />
        </mxCell>
        <mxCell id="Af25gzBN8nT7H2rfPNfR-34" value="Pre-call &lt;br&gt;verification by Agent" style="rhombus;whiteSpace=wrap;html=1;fontSize=16;rounded=1;strokeWidth=2;" vertex="1" parent="WIyWlLk6GJQsqaUBKTNV-1">
          <mxGeometry x="365" y="927.5" width="140" height="112.5" as="geometry" />
        </mxCell>
        <mxCell id="Af25gzBN8nT7H2rfPNfR-49" value="" style="edgeStyle=orthogonalEdgeStyle;rounded=0;orthogonalLoop=1;jettySize=auto;html=1;fontSize=16;" edge="1" parent="WIyWlLk6GJQsqaUBKTNV-1" source="Af25gzBN8nT7H2rfPNfR-36" target="Af25gzBN8nT7H2rfPNfR-46">
          <mxGeometry relative="1" as="geometry" />
        </mxCell>
        <mxCell id="Af25gzBN8nT7H2rfPNfR-36" value="Data Entry By Agent" style="rounded=1;whiteSpace=wrap;html=1;fontSize=16;strokeWidth=2;" vertex="1" parent="WIyWlLk6GJQsqaUBKTNV-1">
          <mxGeometry x="375" y="1146.25" width="120" height="60" as="geometry" />
        </mxCell>
        <mxCell id="Af25gzBN8nT7H2rfPNfR-41" value="" style="edgeStyle=orthogonalEdgeStyle;rounded=0;orthogonalLoop=1;jettySize=auto;html=1;fontSize=16;" edge="1" parent="WIyWlLk6GJQsqaUBKTNV-1" source="Af25gzBN8nT7H2rfPNfR-38" target="Af25gzBN8nT7H2rfPNfR-34">
          <mxGeometry relative="1" as="geometry" />
        </mxCell>
        <mxCell id="Af25gzBN8nT7H2rfPNfR-38" value="Success" style="text;html=1;align=center;verticalAlign=middle;resizable=0;points=[];autosize=1;strokeColor=none;fillColor=none;fontSize=16;" vertex="1" parent="WIyWlLk6GJQsqaUBKTNV-1">
          <mxGeometry x="395" y="870" width="80" height="30" as="geometry" />
        </mxCell>
        <mxCell id="Af25gzBN8nT7H2rfPNfR-45" value="" style="edgeStyle=orthogonalEdgeStyle;rounded=0;orthogonalLoop=1;jettySize=auto;html=1;fontSize=16;" edge="1" parent="WIyWlLk6GJQsqaUBKTNV-1" source="Af25gzBN8nT7H2rfPNfR-43" target="Af25gzBN8nT7H2rfPNfR-36">
          <mxGeometry relative="1" as="geometry" />
        </mxCell>
        <mxCell id="Af25gzBN8nT7H2rfPNfR-43" value="success" style="text;html=1;align=center;verticalAlign=middle;resizable=0;points=[];autosize=1;strokeColor=none;fillColor=none;fontSize=16;" vertex="1" parent="WIyWlLk6GJQsqaUBKTNV-1">
          <mxGeometry x="395" y="1075" width="80" height="30" as="geometry" />
        </mxCell>
        <mxCell id="Af25gzBN8nT7H2rfPNfR-46" value="Rejected" style="text;html=1;align=center;verticalAlign=middle;resizable=0;points=[];autosize=1;strokeColor=none;fillColor=none;fontSize=16;" vertex="1" parent="WIyWlLk6GJQsqaUBKTNV-1">
          <mxGeometry x="620" y="968.75" width="90" height="30" as="geometry" />
        </mxCell>
      </root>
    </mxGraphModel>
  </diagram>
</mxfile>
